<?xml version="1.0" encoding="UTF-8"?>
<svg version="1.1" xmlns="http://www.w3.org/2000/svg" width="85" height="85">
<path d="M0 0 C5.46233773 4.30243392 9.25799921 11.35624223 10.34765625 18.17578125 C10.53996696 22.61565024 9.7621466 25.54731675 7 29 C3.04329566 32.61378997 -0.38006001 32.42777673 -5.5390625 32.59375 C-6.75722656 32.79484375 -6.75722656 32.79484375 -8 33 C-8.66 33.99 -9.32 34.98 -10 36 C-10.66 36 -11.32 36 -12 36 C-12 36.66 -12 37.32 -12 38 C-11.01 38.33 -10.02 38.66 -9 39 C-8.505 41.475 -8.505 41.475 -8 44 C-6.7315625 43.45859375 -6.7315625 43.45859375 -5.4375 42.90625 C6.44262295 38.0461997 6.44262295 38.0461997 13 39 C15.4375 40.125 15.4375 40.125 17 42 C18.09837099 45.36833771 18.28416967 47.22326957 17.0625 50.5625 C11.73575452 56.85774466 2.82947916 60.3725183 -4.3125 64.25 C-5.30056641 64.79140625 -6.28863281 65.3328125 -7.30664062 65.890625 C-8.72686523 66.6640625 -8.72686523 66.6640625 -10.17578125 67.453125 C-11.03083252 67.91879883 -11.88588379 68.38447266 -12.7668457 68.86425781 C-16.06369303 70.54097518 -18.63978309 71.12422351 -22.2878418 71.11352539 C-23.14850754 71.11344986 -24.00917328 71.11337433 -24.8959198 71.11329651 C-25.82100845 71.10813522 -26.74609711 71.10297394 -27.69921875 71.09765625 C-28.64940384 71.0962413 -29.59958893 71.09482635 -30.5785675 71.09336853 C-33.61491029 71.08776875 -36.65117948 71.07521632 -39.6875 71.0625 C-41.74544164 71.05748497 -43.80338444 71.05292207 -45.86132812 71.04882812 C-50.90758046 71.0377994 -55.95377775 71.02053493 -61 71 C-61.38218767 69.34385343 -61.71395102 67.67542976 -62 66 C-61 65 -61 65 -57.45605469 64.96923828 C-55.86129215 65.00118127 -54.26656702 65.03502412 -52.671875 65.0703125 C-25.37306165 65.66240766 -25.37306165 65.66240766 -1.046875 54.41601562 C1.89483633 52.38095769 5.04332397 50.79562883 8.23242188 49.18457031 C10.32567568 48.04302255 10.32567568 48.04302255 11 45 C10.33806641 45.27263672 9.67613281 45.54527344 8.99414062 45.82617188 C-6.49306002 52.06155548 -22.1031058 57.09762763 -39 54 C-39.66 53.34 -40.32 52.68 -41 52 C-40.46428571 48.46428571 -40.46428571 48.46428571 -39 47 C-37.21928754 46.91273777 -35.4351686 46.89300959 -33.65234375 46.90234375 C-32.57275391 46.90556641 -31.49316406 46.90878906 -30.38085938 46.91210938 C-28.67639648 46.92467773 -28.67639648 46.92467773 -26.9375 46.9375 C-25.22723633 46.94426758 -25.22723633 46.94426758 -23.48242188 46.95117188 C-20.65489649 46.96300253 -17.8274736 46.9794859 -15 47 C-15 45.68 -15 44.36 -15 43 C-18.57581935 41.21209033 -22.68656243 41.72975791 -26.625 41.6875 C-27.50285156 41.65849609 -28.38070312 41.62949219 -29.28515625 41.59960938 C-35.40118196 41.54053929 -39.88152972 42.56950224 -45 46 C-45.66 46.66 -46.32 47.32 -47 48 C-50.2578125 48.1953125 -50.2578125 48.1953125 -54.125 48.125 C-56.04699219 48.09792969 -56.04699219 48.09792969 -58.0078125 48.0703125 C-58.99523438 48.04710937 -59.98265625 48.02390625 -61 48 C-61.38218767 46.34385343 -61.71395102 44.67542976 -62 43 C-60.31564218 41.31564218 -58.05644806 41.79542203 -55.75 41.6875 C-50.88263354 41.2976076 -48.56795007 40.46301037 -45 37 C-39.44035509 33.88439701 -32.76045019 34.64312106 -26.57226562 34.609375 C-21.0527501 34.56821887 -21.0527501 34.56821887 -16.34765625 31.9609375 C-15.68056641 30.99027344 -15.68056641 30.99027344 -15 30 C-15.94875 29.4225 -16.8975 28.845 -17.875 28.25 C-22.07913669 25.22302158 -22.07913669 25.22302158 -23 22 C-23.53087331 17.31061905 -23.08566661 13.83073878 -20.54296875 9.7734375 C-15.47753016 3.95138909 -7.92172607 -1.2426237 0 0 Z M-8.375 8.8125 C-9.16648437 9.33457031 -9.95796875 9.85664063 -10.7734375 10.39453125 C-13.75404539 12.54370641 -15.66390047 13.96584761 -16.8125 17.5 C-17.27671738 20.25158089 -17.27671738 20.25158089 -15 23 C-13.68 23 -12.36 23 -11 23 C-10.34 21.35 -9.68 19.7 -9 18 C-7.68 18.33 -6.36 18.66 -5 19 C-5 21.31 -5 23.62 -5 26 C-0.7018005 26.42170172 -0.7018005 26.42170172 3 24.5 C4.52768052 20.68079871 3.47964008 17.65635504 2 14 C0.51129454 11.20332649 -1.0759654 8.52068644 -3 6 C-4.99121866 6 -6.78418578 7.75453132 -8.375 8.8125 Z " fill="#FF975A" transform="translate(65,7)"/>
</svg>
