<?xml version="1.0" encoding="UTF-8"?>
<svg version="1.1" xmlns="http://www.w3.org/2000/svg" width="85" height="85">
<path d="M0 0 C1.62890625 1.16796875 1.62890625 1.16796875 3.62890625 4.16796875 C3.62890625 5.15796875 3.62890625 6.14796875 3.62890625 7.16796875 C4.43328125 6.83796875 5.23765625 6.50796875 6.06640625 6.16796875 C11.65232367 4.59999193 17.03741164 4.58666371 22.62890625 6.16796875 C22.87640625 5.05421875 22.87640625 5.05421875 23.12890625 3.91796875 C25.34219708 -0.1397311 28.29981389 -1.45560188 32.62890625 -2.83203125 C38.30664853 -3.69374593 42.7845612 -3.09914768 47.62890625 0.16796875 C50.84430381 3.21413486 51.58548555 4.50580303 51.87890625 8.98046875 C51.79640625 10.03234375 51.71390625 11.08421875 51.62890625 12.16796875 C47.86590251 13.42230333 44.35679716 13.27492297 40.44140625 13.23046875 C39.69181641 13.22595703 38.94222656 13.22144531 38.16992188 13.21679688 C36.32288242 13.20503229 34.47588412 13.1870974 32.62890625 13.16796875 C33.28890625 14.15796875 33.94890625 15.14796875 34.62890625 16.16796875 C35.00390625 19.66796875 35.00390625 19.66796875 34.62890625 23.16796875 C32.21581622 25.81358597 30.70131889 26.15963707 27.1171875 26.57202148 C25.72547684 26.59846777 24.33335628 26.60731363 22.94140625 26.6015625 C22.20188721 26.60680435 21.46236816 26.6120462 20.70043945 26.6174469 C19.14047499 26.62385622 17.58046212 26.62254417 16.02050781 26.61401367 C13.63649394 26.60549586 11.25487148 26.63428767 8.87109375 26.66601562 C7.3528653 26.66762765 5.83463262 26.66705008 4.31640625 26.6640625 C3.60589111 26.67529648 2.89537598 26.68653046 2.16333008 26.69810486 C-1.21942166 26.65056362 -3.09188825 26.36968706 -5.86328125 24.36743164 C-7.37109375 22.16796875 -7.37109375 22.16796875 -7.18359375 18.48046875 C-6.37109375 15.16796875 -6.37109375 15.16796875 -5.37109375 14.16796875 C-6.56347656 14.10738281 -7.75585938 14.04679687 -8.984375 13.984375 C-10.550793 13.89995726 -12.11719863 13.81530988 -13.68359375 13.73046875 C-14.86211914 13.67149414 -14.86211914 13.67149414 -16.06445312 13.61132812 C-16.82177734 13.56943359 -17.57910156 13.52753906 -18.359375 13.484375 C-19.05587158 13.44771729 -19.75236816 13.41105957 -20.4699707 13.37329102 C-22.37109375 13.16796875 -22.37109375 13.16796875 -25.37109375 12.16796875 C-25.8192169 7.68673728 -25.70462388 5.67302866 -23.18359375 1.85546875 C-16.30770854 -4.71482156 -8.07953553 -4.26011873 0 0 Z M-17.37109375 5.16796875 C-17.37109375 5.49796875 -17.37109375 5.82796875 -17.37109375 6.16796875 C-13.08109375 6.16796875 -8.79109375 6.16796875 -4.37109375 6.16796875 C-8.31780353 2.22125897 -12.65412252 2.80948314 -17.37109375 5.16796875 Z M30.62890625 5.16796875 C30.62890625 5.49796875 30.62890625 5.82796875 30.62890625 6.16796875 C34.91890625 6.16796875 39.20890625 6.16796875 43.62890625 6.16796875 C39.68219647 2.22125897 35.34587748 2.80948314 30.62890625 5.16796875 Z M1.06640625 16.23046875 C-0.56970939 18.03357936 -0.56970939 18.03357936 -0.37109375 20.16796875 C8.86890625 20.16796875 18.10890625 20.16796875 27.62890625 20.16796875 C27.03767555 15.9452671 27.03767555 15.9452671 23.50390625 13.98046875 C15.64411587 9.95472246 7.94434002 10.69457084 1.06640625 16.23046875 Z " fill="#FF975A" transform="translate(29.37109375,44.83203125)"/>
<path d="M0 0 C3.16738887 1.54999881 4.48432695 2.76903852 5.84765625 6.0234375 C6.96503699 9.94430645 7.36368613 13.02241117 5.875 16.875 C3.00719424 21.65467626 3.00719424 21.65467626 0 23 C-4.44580905 23.66728841 -7.87127817 23.55235324 -11.9375 21.5625 C-14.83827742 17.95850381 -15.82890596 14.61176196 -16 10 C-15.27936847 6.45802805 -13.70377558 3.83911704 -11.375 1.0625 C-7.59833533 -0.62706051 -4.05902274 -0.62334992 0 0 Z M-7.75 7.0625 C-9.70767152 10.09689086 -8.70550248 12.60076077 -8 16 C-5.65466049 16.76956136 -5.65466049 16.76956136 -3 17 C-1.06345052 15.98029682 -1.06345052 15.98029682 0 14 C0.44413964 11.03906909 0.46030193 9.63565504 -1.3125 7.1875 C-3.70604598 5.50315283 -5.26301686 5.55254595 -7.75 7.0625 Z " fill="#FF965A" transform="translate(47,25)"/>
<path d="M0 0 C2.9033447 2.60556576 3.87407924 4.13654335 4.4375 8 C3.94702329 11.36326885 3.01736344 13.28431844 1 16 C-2.13871188 17.56935594 -4.53855822 17.35201103 -8 17 C-10.9375 14.9375 -10.9375 14.9375 -13 12 C-13.50951861 7.85106275 -13.54666957 4.43800392 -11 1 C-7.43424307 -1.7733665 -4.19374333 -1.12332411 0 0 Z M-5 5 C-6.10836423 6.88316159 -6.10836423 6.88316159 -7 9 C-6.67 9.66 -6.34 10.32 -6 11 C-5.01 10.67 -4.02 10.34 -3 10 C-3.33 8.35 -3.66 6.7 -4 5 C-4.33 5 -4.66 5 -5 5 Z " fill="#FF965A" transform="translate(71,23)"/>
<path d="M0 0 C2.05938216 1.57885966 2.84571211 2.69142423 4 5 C4.49055907 9.33327174 4.47744439 11.32000344 1.9375 14.9375 C-1.74062512 17.52001338 -3.59231863 17.72125695 -8 17 C-10.36497439 15.13291495 -11.66030715 13.67938569 -13 11 C-13.43023798 7.12785818 -13.31669086 5.47503629 -11.125 2.1875 C-7.37806433 -1.66963966 -5.15131083 -1.08448649 0 0 Z M-5 5 C-5.33 6.65 -5.66 8.3 -6 10 C-5.01 10.33 -4.02 10.66 -3 11 C-2.67 9.68 -2.34 8.36 -2 7 C-2.99 6.34 -3.98 5.68 -5 5 Z " fill="#FF975A" transform="translate(23,23)"/>
</svg>
