<?xml version="1.0" encoding="UTF-8"?>
<svg version="1.1" xmlns="http://www.w3.org/2000/svg" width="85" height="85">
<path d="M0 0 C3.49320735 2.00418361 5.90675822 4.64748073 7.93359375 8.109375 C8.74017661 12.061631 8.19610835 13.61463594 6.30859375 17.171875 C2.55901714 21.80950923 -0.51352474 25.17200473 -6.56640625 26.046875 C-10.45123805 26.29666114 -13.46542935 25.6790316 -17.06640625 24.109375 C-17.06640625 22.459375 -17.06640625 20.809375 -17.06640625 19.109375 C-14.02889331 18.37300823 -11.71733381 18.13430875 -8.56640625 18.359375 C-4.9087319 18.4321033 -4.9087319 18.4321033 -2.19140625 15.796875 C0.07991436 13.23766843 0.07991436 13.23766843 0.93359375 10.109375 C-4.10526816 6.37112245 -4.10526816 6.37112245 -10.06640625 5.109375 C-15.44645238 6.92434413 -15.44645238 6.92434413 -19.06640625 11.109375 C-18.38578125 10.779375 -17.70515625 10.449375 -17.00390625 10.109375 C-13.55800387 8.93630185 -10.68243203 8.96757007 -7.06640625 9.109375 C-6.57140625 10.099375 -6.57140625 10.099375 -6.06640625 11.109375 C-7.4538168 13.8841961 -8.92541705 13.91687136 -11.81640625 14.921875 C-17.05707278 16.94327495 -20.625483 19.18722296 -23.18359375 24.375 C-24.20420258 27.5361778 -24.26424073 30.10790609 -24.19140625 33.421875 C-24.17335937 34.49050781 -24.1553125 35.55914062 -24.13671875 36.66015625 C-24.11351562 37.46839844 -24.0903125 38.27664062 -24.06640625 39.109375 C-23.41043457 39.10413818 -22.75446289 39.09890137 -22.07861328 39.09350586 C-19.11622062 39.07276228 -16.15384322 39.05972324 -13.19140625 39.046875 C-11.64259766 39.03430664 -11.64259766 39.03430664 -10.0625 39.02148438 C-9.07636719 39.01826172 -8.09023438 39.01503906 -7.07421875 39.01171875 C-6.1630127 39.00648193 -5.25180664 39.00124512 -4.31298828 38.99584961 C-2.06640625 39.109375 -2.06640625 39.109375 -0.06640625 40.109375 C-0.06640625 41.759375 -0.06640625 43.409375 -0.06640625 45.109375 C-1.05640625 45.604375 -1.05640625 45.604375 -2.06640625 46.109375 C-2.89018426 49.64890471 -3.47935126 53.2070162 -4.08984375 56.7890625 C-5.20587333 60.58356308 -5.67559061 61.2525817 -9.06640625 63.109375 C-11.63999119 63.40149379 -13.96464092 63.53048025 -16.53515625 63.5078125 C-17.25247925 63.51068268 -17.96980225 63.51355286 -18.7088623 63.51651001 C-20.22176912 63.51854669 -21.73470251 63.51304444 -23.24755859 63.50048828 C-25.55886909 63.48442737 -27.86843117 63.50034866 -30.1796875 63.51953125 C-31.6523476 63.51754875 -33.12500661 63.51370492 -34.59765625 63.5078125 C-35.28629761 63.51388519 -35.97493896 63.51995789 -36.68444824 63.5262146 C-39.70346295 63.48212117 -41.80392695 63.25310732 -44.47216797 61.79199219 C-46.93984999 59.18751064 -47.09770454 56.46790191 -47.69140625 52.984375 C-48.09164053 50.68185072 -48.53664744 48.38559141 -49.06640625 46.109375 C-49.72640625 45.779375 -50.38640625 45.449375 -51.06640625 45.109375 C-51.06640625 43.459375 -51.06640625 41.809375 -51.06640625 40.109375 C-48.76986925 38.9611065 -47.48327458 38.99376325 -44.93359375 39.01171875 C-44.12792969 39.01494141 -43.32226562 39.01816406 -42.4921875 39.02148438 C-41.22955078 39.03405273 -41.22955078 39.03405273 -39.94140625 39.046875 C-38.66716797 39.05364258 -38.66716797 39.05364258 -37.3671875 39.06054688 C-35.26689716 39.07234626 -33.16664295 39.09028194 -31.06640625 39.109375 C-31.52086589 37.69146092 -31.98015569 36.27509454 -32.44140625 34.859375 C-32.69664063 34.07046875 -32.951875 33.2815625 -33.21484375 32.46875 C-34.65336135 28.10239885 -34.65336135 28.10239885 -37.81640625 25.046875 C-38.55890625 24.7375 -39.30140625 24.428125 -40.06640625 24.109375 C-42.06640625 23.109375 -44.06640625 22.109375 -46.06640625 21.109375 C-46.06640625 19.789375 -46.06640625 18.469375 -46.06640625 17.109375 C-43.42640625 17.439375 -40.78640625 17.769375 -38.06640625 18.109375 C-41.00943723 14.30691025 -41.00943723 14.30691025 -45.40234375 12.77734375 C-47.64220955 12.79500831 -49.83761424 12.89086598 -52.06640625 13.109375 C-51.55520859 17.50567491 -51.00159352 20.72946238 -48.06640625 24.109375 C-45.49463997 25.25004384 -42.92972976 26.17554717 -40.24609375 27.01953125 C-38.06640625 28.109375 -38.06640625 28.109375 -37.13671875 30.10546875 C-37.11351563 30.76675781 -37.0903125 31.42804687 -37.06640625 32.109375 C-37.72640625 32.769375 -38.38640625 33.429375 -39.06640625 34.109375 C-45.23406917 34.01917152 -50.26965165 32.09809117 -54.66015625 27.80078125 C-58.78422693 22.84044068 -59.7067075 17.55771606 -59.46875 11.28515625 C-59.06640625 9.109375 -59.06640625 9.109375 -57.12890625 7.046875 C-50.64309055 5.06142121 -45.20004464 4.29093293 -38.8515625 7.10546875 C-32.88363842 10.46160986 -31.0636683 14.90735075 -29.06640625 21.109375 C-28.83566406 20.16835938 -28.60492188 19.22734375 -28.3671875 18.2578125 C-24.98420468 5.340969 -24.98420468 5.340969 -20.06640625 1.109375 C-13.26534716 -2.66899116 -7.122958 -2.94360058 0 0 Z M-42.06640625 46.109375 C-41.53743788 52.12905536 -41.53743788 52.12905536 -39.06640625 57.109375 C-34.59371662 57.390864 -30.1093989 57.34118934 -25.62890625 57.359375 C-24.36240234 57.38 -23.09589844 57.400625 -21.79101562 57.421875 C-20.58380859 57.42703125 -19.37660156 57.4321875 -18.1328125 57.4375 C-17.01849854 57.4468457 -15.90418457 57.45619141 -14.75610352 57.46582031 C-13.86850342 57.34819336 -12.98090332 57.23056641 -12.06640625 57.109375 C-9.39558586 53.58762581 -9.39558586 53.58762581 -9.06640625 46.109375 C-19.95640625 46.109375 -30.84640625 46.109375 -42.06640625 46.109375 Z " fill="#FF975A" transform="translate(68.06640625,11.890625)"/>
</svg>
