<svg width="73" height="65" viewBox="0 0 73 65" fill="none" xmlns="http://www.w3.org/2000/svg">
<path d="M68.8826 22.1254L68.8839 22.127C71.9655 25.9189 73.1643 30.9057 72.1439 35.6868L72.1437 35.6879L68.9381 50.8744C68.938 50.875 68.9379 50.8755 68.9377 50.8761C67.3281 58.3527 60.7399 63.6986 53.1044 63.7269C53.1041 63.7269 53.1037 63.7269 53.1034 63.7269L16.6831 63.7269C7.75029 63.7171 0.509839 56.4673 0.5 47.5194V32.3316C0.509839 23.3836 7.7503 16.1337 16.6831 16.1239H22.9976H23.304L23.4431 15.8509L28.0294 6.85023L28.0296 6.8497C30.0187 2.93449 34.0423 0.478177 38.428 0.501058V0.501144L38.4373 0.50102C39.1348 0.491706 39.8321 0.546212 40.52 0.663722C46.7716 1.73168 50.9762 7.67335 49.9096 13.936L50.3896 14.0178L49.9096 13.936L49.6365 15.54L49.537 16.1239H50.1294L56.3112 16.1239L56.3123 16.1239C61.1939 16.1136 65.817 18.3207 68.8826 22.1254ZM21.7324 24.737V24.237H21.2324H16.6825C12.2177 24.237 8.59951 27.8618 8.59951 32.3313V47.5197C8.59951 51.9893 12.2178 55.6139 16.6825 55.6139H21.2324H21.7324V55.1139V24.737ZM64.2196 34.008L63.7304 33.9047C63.8397 33.3872 63.8951 32.8594 63.8948 32.3304L64.3948 32.3303C64.3948 32.3303 64.3948 32.3302 64.3948 32.3301C64.3943 27.8606 60.7758 24.2366 56.3112 24.237H39.9418L41.9265 12.5729L41.9266 12.5721C41.9581 12.3856 41.9737 12.1972 41.9741 12.0089V12.0082C41.9751 10.1396 40.4663 8.6217 38.6003 8.61423C37.208 8.55302 35.9039 9.29726 35.2475 10.5283L35.2474 10.5283L35.2431 10.5366L29.8864 21.05L29.8319 21.157V21.277V55.1139V55.6139H30.3319L53.1049 55.6139L53.1067 55.6139C56.9199 55.6003 60.2083 52.9303 61.0102 49.1984L61.0105 49.1967L64.2196 34.008Z" fill="#4EB3AC" stroke="white"/>
</svg>
