<svg width="73" height="65" viewBox="0 0 73 65" fill="none" xmlns="http://www.w3.org/2000/svg">
<path d="M69.2719 21.8117C66.1113 17.889 61.3446 15.6133 56.3112 15.6239H50.1294L50.4025 14.0199C51.5153 7.48583 47.1286 1.28542 40.6042 0.170862C39.8863 0.0482316 39.1586 -0.00865639 38.4307 0.00106429C33.8555 -0.0228044 29.6585 2.53963 27.5839 6.62323L22.9976 15.6239H16.6825C7.47325 15.634 0.00999022 23.1082 0 32.3313V47.5197C0.00999022 56.7428 7.47325 64.2168 16.6825 64.2269H53.1052C60.9771 64.1982 67.7685 58.6866 69.4269 50.9796L72.6329 35.7912C73.6848 30.8622 72.449 25.7211 69.2719 21.8117ZM9.09951 47.5197V32.3313C9.09951 28.1372 12.4945 24.737 16.6825 24.737H21.2324V55.1139H16.6825C12.4946 55.1139 9.09951 51.7138 9.09951 47.5197ZM63.7304 33.9047L60.5213 49.0934C59.7687 52.5959 56.6827 55.1011 53.1049 55.1139H30.3319V21.277L35.6887 10.7636C36.2562 9.69936 37.3848 9.05745 38.5884 9.1142C40.1828 9.1152 41.475 10.4108 41.4741 12.0079C41.4738 12.1692 41.4604 12.3301 41.4336 12.489L39.3495 24.737H56.3112C60.4991 24.7366 63.8945 28.1363 63.8948 32.3304C63.8951 32.8594 63.8397 33.3872 63.7304 33.9047Z" fill="#236260"/>
<path d="M69.2719 21.8117C66.1113 17.889 61.3446 15.6133 56.3112 15.6239H50.1294L50.4025 14.0199C51.5153 7.48583 47.1286 1.28542 40.6042 0.170862C39.8863 0.0482316 39.1586 -0.00865639 38.4307 0.00106429C33.8555 -0.0228044 29.6585 2.53963 27.5839 6.62323L22.9976 15.6239H16.6825C7.47325 15.634 0.00999022 23.1082 0 32.3313V47.5197C0.00999022 56.7428 7.47325 64.2168 16.6825 64.2269H53.1052C60.9771 64.1982 67.7685 58.6866 69.4269 50.9796L72.6329 35.7912C73.6848 30.8622 72.449 25.7211 69.2719 21.8117ZM9.09951 47.5197V32.3313C9.09951 28.1372 12.4945 24.737 16.6825 24.737H21.2324V55.1139H16.6825C12.4946 55.1139 9.09951 51.7138 9.09951 47.5197ZM63.7304 33.9047L60.5213 49.0934C59.7687 52.5959 56.6827 55.1011 53.1049 55.1139H30.3319V21.277L35.6887 10.7636C36.2562 9.69936 37.3848 9.05745 38.5884 9.1142C40.1828 9.1152 41.475 10.4108 41.4741 12.0079C41.4738 12.1692 41.4604 12.3301 41.4336 12.489L39.3495 24.737H56.3112C60.4991 24.7366 63.8945 28.1363 63.8948 32.3304C63.8951 32.8594 63.8397 33.3872 63.7304 33.9047Z" stroke="white"/>
</svg>
