<svg width="273" height="65" viewBox="0 0 273 65" fill="none" xmlns="http://www.w3.org/2000/svg">
<path d="M68.8839 22.127L68.8826 22.1254C65.817 18.3207 61.1939 16.1136 56.3123 16.1239L56.3112 16.1239H50.1294H49.537L49.6365 15.54L49.9096 13.936C50.9762 7.67335 46.7716 1.73168 40.52 0.663722C39.8321 0.546212 39.1348 0.491706 38.4373 0.50102L38.428 0.501144V0.501058C34.0423 0.478177 30.0187 2.93449 28.0296 6.8497L28.0294 6.85023L23.4431 15.8509L23.304 16.1239H22.9976L16.6831 16.1239L16.6825 16.1239M68.8839 22.127L0 32.3313C0.00999022 23.1082 7.47325 15.634 16.6825 15.6239V16.1239M68.8839 22.127C71.9655 25.9189 73.1643 30.9057 72.1439 35.6868L72.1437 35.6879L68.9381 50.8744C68.938 50.875 68.9378 50.8757 68.9377 50.8763C67.328 58.3528 60.7399 63.6986 53.1044 63.7269C53.1041 63.7269 53.1037 63.7269 53.1034 63.7269L16.6831 63.7269C7.75029 63.7171 0.509839 56.4673 0.5 47.5194V32.3316M68.8839 22.127L0.5 32.3316M16.6825 16.1239C7.75 16.134 0.509839 23.3838 0.5 32.3316M16.6825 16.1239L0.5 32.3316M21.7324 24.737V24.237H21.2324H16.6825C12.2177 24.237 8.59951 27.8618 8.59951 32.3313V47.5197C8.59951 51.9893 12.2178 55.6139 16.6825 55.6139H21.2324H21.7324V55.1139V24.737ZM61.0102 49.1984L61.0105 49.1967L63.8948 32.3304L64.3948 32.3303C64.3948 32.3303 64.3948 32.3302 64.3948 32.3301C64.3943 27.8606 60.7758 24.2366 56.3112 24.237H39.9418L41.9265 12.5729L41.9266 12.5722C41.9581 12.3856 41.9737 12.1972 41.9741 12.0089V12.0082C41.9751 10.1396 40.4663 8.62169 38.6003 8.61423C37.208 8.55303 35.9039 9.29726 35.2475 10.5283L35.2474 10.5283L35.2431 10.5366L29.8864 21.05L29.8319 21.157V21.277V55.1139V55.6139H30.3319L53.1049 55.6139L53.1067 55.6139C56.9199 55.6003 60.2083 52.9303 61.0102 49.1984Z" fill="#4EB3AC" stroke="white"/>
<path d="M168.884 22.127L168.883 22.1254C165.817 18.3207 161.194 16.1136 156.312 16.1239L156.311 16.1239H150.129H149.537L149.636 15.54L149.91 13.936C150.976 7.67335 146.772 1.73168 140.52 0.663722C139.832 0.546212 139.135 0.491706 138.437 0.50102L138.428 0.501144V0.501058C134.042 0.478177 130.019 2.93449 128.03 6.8497L128.029 6.85023L123.443 15.8509L123.304 16.1239H122.998L116.683 16.1239L116.683 16.1239M168.884 22.127L100 32.3313C100.01 23.1082 107.473 15.634 116.683 15.6239V16.1239M168.884 22.127C171.965 25.9189 173.164 30.9057 172.144 35.6868L172.144 35.6879L168.938 50.8744C168.938 50.875 168.938 50.8757 168.938 50.8763C167.328 58.3528 160.74 63.6986 153.104 63.7269C153.104 63.7269 153.104 63.7269 153.103 63.7269L116.683 63.7269C107.75 63.7171 100.51 56.4673 100.5 47.5194V32.3316M168.884 22.127L100.5 32.3316M116.683 16.1239C107.75 16.134 100.51 23.3838 100.5 32.3316M116.683 16.1239L100.5 32.3316M121.732 24.737V24.237H121.232H116.683C112.218 24.237 108.6 27.8618 108.6 32.3313V47.5197C108.6 51.9893 112.218 55.6139 116.683 55.6139H121.232H121.732V55.1139V24.737ZM161.01 49.1984L161.011 49.1967L163.895 32.3304L164.395 32.3303C164.395 32.3303 164.395 32.3302 164.395 32.3301C164.394 27.8606 160.776 24.2366 156.311 24.237H139.942L141.926 12.5729L141.927 12.5722C141.958 12.3856 141.974 12.1972 141.974 12.0089V12.0082C141.975 10.1396 140.466 8.62169 138.6 8.61423C137.208 8.55303 135.904 9.29726 135.247 10.5283L135.247 10.5283L135.243 10.5366L129.886 21.05L129.832 21.157V21.277V55.1139V55.6139H130.332L153.105 55.6139L153.107 55.6139C156.92 55.6003 160.208 52.9303 161.01 49.1984Z" fill="#4EB3AC" stroke="white"/>
<path d="M268.884 22.127L268.883 22.1254C265.817 18.3207 261.194 16.1136 256.312 16.1239L256.311 16.1239H250.129H249.537L249.636 15.54L249.91 13.936C250.976 7.67335 246.772 1.73168 240.52 0.663722C239.832 0.546212 239.135 0.491706 238.437 0.50102L238.428 0.501144V0.501058C234.042 0.478177 230.019 2.93449 228.03 6.8497L228.029 6.85023L223.443 15.8509L223.304 16.1239H222.998L216.683 16.1239L216.683 16.1239M268.884 22.127L200 32.3313C200.01 23.1082 207.473 15.634 216.683 15.6239V16.1239M268.884 22.127C271.965 25.9189 273.164 30.9057 272.144 35.6868L272.144 35.6879L268.938 50.8744C268.938 50.875 268.938 50.8757 268.938 50.8763C267.328 58.3528 260.74 63.6986 253.104 63.7269C253.104 63.7269 253.104 63.7269 253.103 63.7269L216.683 63.7269C207.75 63.7171 200.51 56.4673 200.5 47.5194V32.3316M268.884 22.127L200.5 32.3316M216.683 16.1239C207.75 16.134 200.51 23.3838 200.5 32.3316M216.683 16.1239L200.5 32.3316M221.732 24.737V24.237H221.232H216.683C212.218 24.237 208.6 27.8618 208.6 32.3313V47.5197C208.6 51.9893 212.218 55.6139 216.683 55.6139H221.232H221.732V55.1139V24.737ZM261.01 49.1984L261.011 49.1967L263.895 32.3304L264.395 32.3303C264.395 32.3303 264.395 32.3302 264.395 32.3301C264.394 27.8606 260.776 24.2366 256.311 24.237H239.942L241.926 12.5729L241.927 12.5722C241.958 12.3856 241.974 12.1972 241.974 12.0089V12.0082C241.975 10.1396 240.466 8.62169 238.6 8.61423C237.208 8.55303 235.904 9.29726 235.247 10.5283L235.247 10.5283L235.243 10.5366L229.886 21.05L229.832 21.157V21.277V55.1139V55.6139H230.332L253.105 55.6139L253.107 55.6139C256.92 55.6003 260.208 52.9303 261.01 49.1984Z" fill="#4EB3AC" stroke="white"/>
</svg>
