<?xml version="1.0" encoding="UTF-8"?>
<svg version="1.1" xmlns="http://www.w3.org/2000/svg" width="85" height="85">
<path d="M0 0 C6.69899171 4.07580759 12.05213902 12.06416306 14.52734375 19.4453125 C16.32372369 29.15467184 16.46366405 40.47492634 11 49 C4.81041209 57.24467702 -1.96455125 63.24892347 -12 66 C-22.93196735 66.92900118 -32.58304765 66.81744653 -41.6484375 60.01171875 C-48.47004626 54.22035296 -53.9220133 47.87867044 -56 39 C-56.25 35.25 -56.25 35.25 -56 32 C-55.34 31.34 -54.68 30.68 -54 30 C-51.375 30.375 -51.375 30.375 -49 31 C-48.85304688 31.53367188 -48.70609375 32.06734375 -48.5546875 32.6171875 C-45.52796611 42.67146889 -41.69387587 49.83112415 -32.26953125 54.94140625 C-25.7071287 58.00235477 -17.98830595 58.29364971 -11.09765625 56.05859375 C-3.41516823 52.37331002 1.42068938 47.60252931 5.04296875 39.875 C7.46075291 32.61177902 7.05289882 25.41285082 3.8125 18.5 C-0.41033816 11.1898768 -5.9839626 6.67201247 -14 4 C-22.6747466 3.14834185 -29.78650541 3.80569862 -37 9 C-37.99 10.485 -37.99 10.485 -39 12 C-37.35 13.65 -35.7 15.3 -34 17 C-34.33 17.99 -34.66 18.98 -35 20 C-38.31248187 20.02888146 -41.62493167 20.04675799 -44.9375 20.0625 C-45.88302734 20.07087891 -46.82855469 20.07925781 -47.80273438 20.08789062 C-49.15141602 20.09272461 -49.15141602 20.09272461 -50.52734375 20.09765625 C-51.77632446 20.10551147 -51.77632446 20.10551147 -53.05053711 20.11352539 C-55 20 -55 20 -56 19 C-56.08685603 17.43827255 -56.10702219 15.87270656 -56.09765625 14.30859375 C-56.09443359 13.36435547 -56.09121094 12.42011719 -56.08789062 11.44726562 C-56.07951172 10.45404297 -56.07113281 9.46082031 -56.0625 8.4375 C-56.05798828 7.44041016 -56.05347656 6.44332031 -56.04882812 5.41601562 C-56.03700007 2.94395151 -56.02051849 0.47200482 -56 -2 C-51.75074742 -1.21007484 -49.91089135 0.84653437 -47 4 C-43.53072438 2.3347477 -40.39642472 0.34418483 -37.1953125 -1.78125 C-25.78769833 -8.1143027 -10.94173429 -6.29978641 0 0 Z " fill="#FF975A" transform="translate(63,12)"/>
<path d="M0 0 C2.5 -0.375 2.5 -0.375 5 0 C7.25349635 3.38024452 7.16212472 5.34718659 7.17626953 9.30981445 C7.0214313 16.79377816 7.0214313 16.79377816 9.65234375 23.56640625 C11.57151566 25.31434792 11.57151566 25.31434792 13.54296875 26.7421875 C14.26419922 27.36480469 14.26419922 27.36480469 15 28 C14.9375 30.9375 14.9375 30.9375 14 33 C12.25 33.6953125 12.25 33.6953125 10 34 C8 32.7421875 8 32.7421875 6 30.875 C5.34 30.27429688 4.68 29.67359375 4 29.0546875 C3.34 28.37664063 2.68 27.69859375 2 27 C0.89785156 25.94039062 0.89785156 25.94039062 -0.2265625 24.859375 C-2.79258395 20.72208931 -2.5122475 17.14254485 -2.375 12.375 C-2.37371094 11.51648437 -2.37242188 10.65796875 -2.37109375 9.7734375 C-2.28178621 3.42267932 -2.28178621 3.42267932 0 0 Z " fill="#FF985A" transform="translate(40,21)"/>
</svg>
