<svg width="415" height="807" viewBox="0 0 415 807" fill="none" xmlns="http://www.w3.org/2000/svg">
<path d="M16.451 673.561C13.4535 674.01 10.5442 675.029 7.7483 676.837C0.972561 681.205 -1.58408 689.576 1.03553 697.014C3.84406 704.961 6.01028 713.321 7.60976 722.081C8.73065 727.128 9.63744 735.136 10.179 740.802C10.6198 745.376 12.6097 749.671 15.8464 753.044C22.0302 759.511 32.8487 769.74 42.3826 773.343C44.171 774.023 46.1861 773.841 47.8108 772.858C51.249 770.771 54.4228 768.405 57.1809 765.614C58.5159 764.268 59.0323 762.351 58.6545 760.518C55.4051 744.77 54.3724 723.731 54.2087 711.161C54.045 698.591 47.9619 706.999 44.0451 709.244C43.9947 709.268 43.9443 709.305 43.8814 709.329C41.7151 710.567 38.9696 710.372 37.0175 708.856C27.7481 701.637 23.1511 690.535 23.403 679.336C23.4912 675.745 27.7481 669.909 16.4258 673.561H16.451Z" fill="white"/>
<path d="M182.885 745.109C187.457 752.268 192.973 757.267 199.874 759.026C202.167 759.608 204.623 758.783 206.109 757C211.02 751.127 218.073 746.711 224.824 745.413C225.995 745.182 227.204 745.558 228.048 746.359C243.69 761.283 255.403 771.475 269.508 779.895C273.967 782.564 276.347 787.648 275.78 792.671C275.617 794.139 275.226 798.107 274.609 799.708C267.808 803.688 259.861 806.551 249.421 806.988C238.602 806.381 227.645 805.386 215.416 800.921C198.628 790.9 181.751 780.89 175.114 770.589C173.263 759.596 174.472 750.897 179.308 744.915C180.24 743.763 182.079 743.847 182.872 745.097L182.885 745.109Z" fill="white"/>
<path d="M102.08 251.305C96.8027 268.206 89.032 289.876 80.3545 309.52C79.0069 312.553 78.289 315.792 78.1379 319.08C77.7097 328.556 75.1027 339.998 71.8533 352.01C54.4858 376.579 34.0704 426.021 34.0704 432.088C34.0704 438.154 39.1081 443.008 39.1081 446.648C39.1081 450.287 37.7983 456.621 34.0704 461.583C33.6926 466.534 32.0301 470.853 29.0327 478.194C23.5668 477.672 20.9723 473.462 25.2544 456.354C22.4837 458.696 20.6701 461.838 20.2167 466.06V488.846C20.2419 490.12 17.6978 489.732 16.4384 489.113C11.1866 486.529 9.81379 480.644 5.10352 474.554C0.871836 458.113 1.32523 453.927 8.88181 438.154C16.0102 411.595 42.5464 319.226 42.8864 318.037C42.8864 318.037 56.9417 269.08 61.7779 246.452C72.8609 250.347 88.0244 252.688 102.08 251.305Z" fill="white"/>
<path d="M63.0373 252.518C57.1684 277.234 50.1281 303.684 47.9241 315.61C42.0174 338.445 34.2215 360.855 26.5138 387.196C22.068 401.877 16.3628 419.955 10.1412 439.368C9.15887 441.358 8.15132 442.656 6.36293 447.861C4.14634 449.062 4.63751 453.673 3.84407 457.567C3.49143 459.302 3.89445 474.639 6.36293 473.34C7.58458 469.87 7.68534 453.855 8.88179 452.714C8.17651 457.689 7.7735 462.19 7.62236 468.487C7.82387 469.822 6.36293 474.554 7.62236 476.98C9.68783 484.491 12.1437 484.564 11.4007 479.407V466.061C11.7407 460.212 12.0304 458.757 13.9195 455.141C13.0505 458.526 12.1563 464.423 12.3956 469.701C12.3704 471.848 11.9296 475.1 11.4007 478.194C11.0228 480.414 10.7206 483.18 13.9195 486.687L17.5845 488.483C17.9749 489.016 18.8439 488.713 18.7935 488.07C18.3905 483.569 18.063 478.934 17.7986 474.214C17.723 472.928 17.8112 471.63 18.0504 470.368C18.8817 466.109 19.1965 462.336 20.2041 460.006C20.9597 457.616 22.8237 455.663 25.2418 453.94C27.7607 453.94 25.2418 464.859 25.2418 469.713C24.6373 473.195 25.8337 475.355 27.7607 476.993C28.9319 476.689 31.01 472.794 32.7984 462.433C33.6044 459.933 33.8815 457.628 35.4432 455.481C37.0049 453.333 37.5087 448.237 36.5767 446.66C36.5767 446.66 32.9621 436.99 32.7984 432.1C32.7984 428.46 35.2039 417.856 37.8361 413.901C48.1131 387.729 55.3674 376.555 68.0624 352.022C72.4704 344.973 73.7299 335.545 75.619 325.329L76.8784 318.049C77.2437 314.579 78.0119 311.558 79.3973 308.343C88.4526 287.328 95.4299 266.872 96.9034 256.219C82.697 255.952 66.9164 250.881 63.0247 252.531L63.0373 252.518Z" fill="white"/>
<path d="M46.904 648.724C36.9293 661.185 28.9823 669.326 20.2041 675.963L21.4635 699.015C32.9873 713.442 44.1333 717.215 52.9493 706.295C56.9795 686.628 62.6973 679.76 73.8558 671.643L46.904 648.736V648.724Z" fill="white"/>
<path d="M46.9041 648.724C35.3173 662.616 25.2419 673.536 21.4636 673.536V699.015C32.9748 713.442 44.1333 717.215 52.9493 706.295C56.9795 686.628 62.6973 679.76 73.8559 671.643L46.9041 648.736V648.724ZM50.4431 706.295C44.3726 710.214 33.6297 712.277 23.995 699.015L22.66 678.426C31.5264 669.884 40.6321 658.916 47.9242 651.696L68.1003 672.396C56.8662 681.811 52.9115 688.824 50.4431 706.295Z" fill="#001961"/>
<path d="M8.88181 680.816C7.62238 685.669 8.62992 686.604 10.1412 690.11C12.0682 694.272 14.7508 699.501 17.6978 705.082C20.0152 712.762 22.068 720.928 23.995 729.348C23.6801 733.838 24.0831 738.29 25.2544 742.695C35.5565 759.208 39.1081 760.894 46.6647 763.321C54.2213 764.534 55.4052 762.933 56.7402 758.468L52.9619 742.695L51.778 709.535C51.7402 708.637 50.7075 708.128 49.9392 708.637C48.2516 709.766 46.3121 711.124 44.3977 712.144C42.156 713.321 39.3978 713.126 37.3827 711.622C33.8059 708.965 30.481 705.349 27.3828 701.612C25.9597 699.901 24.9018 697.924 24.272 695.812C22.1058 688.581 20.8464 682.223 21.4131 675.477C21.4509 675.065 21.1487 674.689 20.7205 674.652C14.9649 674.131 9.70044 677.892 8.88181 680.816Z" fill="white"/>
<path d="M58.6545 760.506C55.4052 744.757 54.3725 723.719 54.2087 711.149C54.0576 698.579 47.962 706.987 44.0451 709.232C43.9948 709.256 43.9444 709.292 43.8814 709.317C41.7152 710.554 38.9696 710.36 37.0175 708.844C27.7481 701.624 23.1512 690.523 23.4031 679.324C23.4912 675.732 27.7481 669.896 16.4258 673.548C13.4284 673.997 10.5191 675.017 7.72315 676.824C0.947415 681.192 -1.60923 689.564 1.01039 697.002C3.81892 704.949 5.98514 713.309 7.58461 722.069C8.70551 727.116 9.6123 735.124 10.1539 740.79C10.5947 745.364 12.5846 749.659 15.8213 753.032C22.0051 759.499 32.8236 769.727 42.3575 773.331C44.1459 774.01 46.161 773.828 47.7856 772.846C51.2239 770.759 54.3976 768.393 57.1558 765.602C58.4908 764.255 59.0072 762.338 58.6293 760.506H58.6545ZM46.6647 763.321C39.1082 760.894 35.5566 759.208 25.2544 742.695C24.0832 738.291 23.6801 733.838 23.995 729.348C22.0681 720.928 20.0152 712.763 17.6978 705.082C14.7508 699.501 12.0682 694.272 10.1413 690.11C8.62994 686.604 7.6224 685.669 8.88183 680.816C9.70046 677.892 14.9523 674.143 20.7205 674.653C21.1487 674.689 21.4509 675.077 21.4132 675.478C20.8464 682.224 22.1058 688.581 24.2721 695.813C24.9018 697.924 25.9597 699.902 27.3829 701.612C30.4937 705.349 33.806 708.965 37.3827 711.622C39.3978 713.127 42.156 713.321 44.3978 712.144C46.3121 711.137 48.2516 709.778 49.9393 708.637C50.7075 708.128 51.7402 708.637 51.778 709.535L52.9619 742.695L56.7402 758.468C55.4052 762.933 54.2213 764.534 46.6647 763.321Z" fill="#001961"/>
<path d="M212.91 712.362H181.424C183.401 725.83 183.766 741.518 179.321 744.927C183.892 756.806 191.487 763.042 200.315 766.961C214.182 765.238 223.212 758.189 229.37 747.985C222.985 739.055 212.91 728.135 212.91 712.362Z" fill="white"/>
<path d="M212.91 712.362H181.424C183.401 725.83 183.766 741.518 179.321 744.927C183.892 756.806 191.487 763.042 200.315 766.961C214.182 765.238 223.212 758.189 229.37 747.985C222.985 739.055 212.91 728.135 212.91 712.362ZM182.683 746.335C185.391 738.254 186.814 727.14 185.202 716.002H210.391C210.58 720.358 211.411 724.41 212.91 728.135C215.101 733.656 219.131 739.807 224.244 746.335C211.298 768.453 194.686 769.533 182.683 746.335Z" fill="#001961"/>
<path d="M179.434 747.706C178.678 749.417 178.086 751.746 177.646 753.615V759.681C177.696 763.879 180.164 765.748 182.683 768.174C188.187 772.979 193.653 776.619 201.575 781.521C208.602 786.386 217.481 789.978 228.023 792.441C236.423 793.302 244.421 794.006 249.433 793.654C257.871 793.254 262.934 792.319 267.065 791.227C270.541 789.213 271.838 787.187 269.584 785.161L247.859 770.601C239.144 763.928 231.99 755.689 226.562 748.883C225.869 748.009 224.043 748.337 222.985 748.762C220.088 749.914 217.809 751.479 215.58 753.542C213.099 755.641 210.051 758.128 206.612 760.895C203.741 762.278 200.806 762.739 197.796 762.108C191.726 759.9 187.91 755.495 183.943 751.188L181.424 746.335C181.185 745.777 179.673 747.148 179.434 747.706Z" fill="white"/>
<path d="M269.521 779.895C255.415 771.475 243.703 761.283 228.061 746.359C227.217 745.546 225.995 745.182 224.824 745.4C218.073 746.699 211.02 751.115 206.121 756.988C204.635 758.771 202.179 759.596 199.887 759.014C192.985 757.255 187.469 752.256 182.897 745.097C182.104 743.847 180.265 743.763 179.321 744.915C174.61 750.751 173.338 759.184 175.001 769.812C175.076 770.322 175.265 770.807 175.555 771.244C182.482 781.314 198.993 791.118 215.428 800.921C227.658 805.386 238.615 806.381 249.433 806.988C259.874 806.551 267.821 803.688 274.622 799.708C275.239 798.107 275.629 794.139 275.793 792.671C276.372 787.648 273.992 782.552 269.521 779.895ZM267.065 791.227C262.934 792.319 257.871 793.253 249.433 793.654C244.421 794.006 236.423 793.302 228.023 792.44C217.481 789.977 208.602 786.386 201.575 781.521C193.653 776.619 188.187 772.979 182.683 768.174C180.164 765.748 177.696 763.879 177.646 759.681V754.876C177.646 754.003 177.746 753.141 177.96 752.292C178.351 750.727 178.842 749.028 179.434 747.694C179.673 747.136 181.197 746.978 181.424 747.536L183.943 752.389C187.91 756.696 191.726 759.887 197.796 762.096C200.806 762.727 203.741 762.265 206.612 760.882C210.063 758.116 213.111 755.629 215.58 753.53C217.847 751.419 220.164 749.841 223.149 748.676C224.509 748.143 226.335 748.579 227.229 749.696C232.569 756.332 239.496 764.183 247.859 770.589L269.584 785.148C271.838 787.175 270.541 789.201 267.065 791.215V791.227Z" fill="#001961"/>
<path d="M97.042 338.663C93.0873 353.745 90.0143 369.894 87.9111 387.244C87.1932 393.129 87.4073 399.086 88.4778 404.91C92.6717 427.708 100.304 450.518 113.415 473.34L165.051 580.111C157.797 616.171 156.55 659.28 162.167 703.468C162.406 705.361 163.326 707.145 164.812 708.407C178.401 719.982 197.948 719.897 215.051 714.546C216.776 714.012 217.96 712.471 217.985 710.736C218.577 665.177 218.048 621.946 225.088 594.805C231.7 564.047 232.406 541.819 228.992 525.525C223.061 494.464 207.62 445.131 190.958 393.48C190.832 393.08 191.134 392.668 191.575 392.668H193.011C193.313 392.668 193.577 392.85 193.665 393.129L217.947 470.926C236.096 436.953 242.166 391.454 238.564 338.675H97.042V338.663Z" fill="#001961"/>
<path d="M44.5867 654.924L69.3345 677.176C72.1178 679.311 79.6366 678.583 81.9288 675.963C91.4249 668.064 127.382 622.856 160.429 583.8C162.457 581.579 162.872 578.388 161.474 575.743L128.515 507.313C126.639 522.746 116.601 539.332 108.364 554.632L68.0625 595.884C59.1961 607.12 47.8108 627.928 41.8915 646.467C40.9091 649.561 41.9545 652.91 44.5741 654.924H44.5867Z" fill="#001961"/>
<path d="M255.73 261.011C262.947 272.756 270.566 284.222 278.879 295.215C281.07 298.272 283.753 300.978 286.838 303.21L330.943 335.072C331.938 335.8 333.009 336.443 334.13 336.977C346.397 342.837 363.991 353.55 382.933 364.143L398.046 371.422C403.524 374.565 407.92 378.472 410.64 383.556C412.983 387.851 416.937 399.329 410.64 399.462C410.64 401.755 411.9 404.182 409.381 405.395C406.862 406.608 404.079 400.518 401.824 396.902C403.084 399.923 403.084 404.182 400.565 404.182C398.046 404.182 396.786 400.542 396.786 400.542C396.786 400.542 396.686 401.61 394.268 402.968C391.635 404.449 389.57 397.484 390.489 392.049C389.746 388.651 386.887 383.859 384.192 381.129C379.696 381.748 373.097 381.177 365.301 379.916C360.427 378.399 357.807 374.893 356.485 370.209C332.178 364.81 308.677 358.294 288.475 347.156C269.937 337.486 246.725 325.293 224.244 290.131C229.181 280.315 234.773 273.63 234.32 269.505L255.73 261.011Z" fill="white"/>
<path opacity="0.5" d="M387.958 383.665C387.706 383.24 387.555 382.148 387.958 382.379C388.915 382.925 390.326 383.058 391.509 383.665C393.399 384.247 396.786 396.902 395.527 400.542C394.494 402.847 392.983 403.126 391.925 401.27C391.648 400.785 391.509 400.214 391.509 399.644C391.409 392.316 389.885 386.965 387.958 383.665Z" fill="white"/>
<path opacity="0.5" d="M393.008 383.556C394.154 383.907 394.985 383.907 395.527 383.556C400.225 390.957 401.484 396.053 401.824 400.542C401.497 403.842 400.363 404.206 398.688 402.483C398.487 402.277 398.084 401.707 397.681 401.088C397.152 400.251 396.812 399.329 396.723 398.358C396.421 395.191 394.922 388.3 392.996 383.568L393.008 383.556Z" fill="white"/>
<path opacity="0.5" d="M396.786 383.556C397.794 383.459 398.676 383.143 399.305 382.342C402.189 386.322 405.955 391.066 408.663 396.587C409.179 397.642 409.343 398.807 409.607 399.947C411.497 408.089 406.522 404.825 403.084 396.89C401.597 393.468 399.205 388.542 396.786 383.543V383.556Z" fill="white"/>
<path d="M410.64 383.556C407.92 378.472 403.524 374.565 398.046 371.422L382.933 364.143C363.978 353.55 346.397 342.825 334.13 336.977C333.009 336.443 331.951 335.8 330.943 335.072L286.838 303.21C283.753 300.978 281.057 298.284 278.879 295.215C270.566 284.222 262.947 272.756 255.73 261.011L234.32 269.505C234.773 273.63 229.181 280.315 224.244 290.131C246.725 325.293 269.937 337.486 288.475 347.156C308.677 358.294 332.178 364.81 356.485 370.209C357.807 374.893 360.427 378.399 365.301 379.916C373.097 381.177 379.696 381.748 384.192 381.129C386.887 383.859 389.746 388.651 390.489 392.049C389.57 397.484 391.635 404.449 394.268 402.968C396.686 401.61 396.786 400.542 396.786 400.542C396.786 400.542 398.046 404.182 400.565 404.182C403.084 404.182 403.084 399.923 401.824 396.902C404.079 400.518 406.862 406.608 409.381 405.395C411.9 404.182 410.64 401.755 410.64 399.462C416.937 399.329 412.983 387.851 410.64 383.556ZM395.527 400.542C394.494 402.847 392.983 403.126 391.925 401.27C391.648 400.785 391.509 400.214 391.509 399.644C391.409 392.316 389.885 386.965 387.958 383.665C387.706 383.24 387.555 382.148 387.958 382.379C388.915 382.925 390.326 383.058 391.509 383.665C393.399 384.247 396.786 396.902 395.527 400.542ZM398.688 402.483C398.487 402.277 398.084 401.707 397.681 401.088C397.152 400.251 396.812 399.329 396.723 398.358C396.421 395.191 394.922 388.3 392.996 383.568C394.142 383.92 394.973 383.92 395.514 383.568C400.212 390.969 401.471 396.065 401.812 400.554C401.484 403.854 400.351 404.218 398.676 402.495L398.688 402.483ZM403.084 396.902C401.597 393.48 399.205 388.554 396.786 383.556C397.794 383.458 398.676 383.143 399.305 382.342C402.189 386.322 405.955 391.066 408.663 396.586C409.179 397.642 409.343 398.807 409.607 399.947C411.497 408.089 406.522 404.825 403.084 396.89V396.902ZM409.381 395.689C406.862 392.049 403.537 385.121 399.305 379.916L389.23 372.636C384.872 370.343 384.457 372.163 387.97 373.849L396.786 379.916C397.252 380.668 398.449 381.481 398.046 382.342C397.013 383.519 393.877 383.155 391.749 382.342C389.759 381.469 387.164 380.741 384.192 379.916C378.424 380.11 373.097 379.952 369.079 378.702C366.019 377.914 363.008 377.089 361.522 375.062C359.306 373.873 357.807 370.355 356.485 367.783C344.797 364.968 333.752 362.141 324.999 359.289C312.266 355.601 300.692 351.282 290.994 345.943C264.597 330.595 240.882 313.487 229.03 292.557L236.839 275.571L256.99 267.078C279.659 299.837 280.919 303.477 302.329 316.824C330.037 337.45 336.548 340.786 350.187 347.156C358.349 350.978 373.55 360.369 382.933 365.356C388.084 367.273 393.663 371.119 399.305 373.849C405.565 377.598 410.892 386.613 413.159 394.475C413.99 397.557 410.98 399.062 409.381 395.689Z" fill="#001961"/>
<path d="M61.7779 246.452C56.9417 269.08 42.8864 318.037 42.8864 318.037C42.5464 319.226 16.0102 411.595 8.8818 438.154C3.68035 446.927 -0.312046 456.172 3.40327 471.545C4.05818 474.275 5.94732 478.424 7.5468 480.754C10.0027 484.345 12.8616 487.791 16.4384 490.327C17.8741 491.346 20.2167 490.569 20.2167 488.846C19.5618 480.147 19.2595 472.042 20.2167 466.061C20.6701 461.838 22.4836 458.696 25.2544 456.354C21.7784 470.246 22.8237 476.434 26.2745 478.545C27.5717 479.346 29.2972 478.764 29.8387 477.381C31.8664 472.2 33.1762 467.941 33.7681 464.107C34.02 462.506 34.5742 460.965 35.418 459.557C38.1258 454.995 39.1081 449.802 39.1081 446.648C39.1081 443.008 34.0704 438.154 34.0704 432.088C34.0704 426.021 54.4858 376.579 71.8533 352.01C75.1027 339.998 77.7097 328.544 78.1379 319.068C78.289 315.78 79.0069 312.553 80.3545 309.52C89.0445 289.876 96.8026 268.206 102.092 251.293C88.037 252.676 72.8735 250.334 61.7905 246.44L61.7779 246.452ZM79.4099 308.331C78.0245 311.546 77.2563 314.567 76.891 318.037L75.6316 325.317C73.7425 335.533 72.483 344.96 68.075 352.01C55.38 376.543 48.1257 387.717 37.8487 413.888C35.2165 417.844 32.811 428.448 32.811 432.088C32.9747 436.978 36.5893 446.648 36.5893 446.648C37.5338 448.225 36.9797 453.394 35.4558 455.468C33.8941 457.616 32.8614 460.067 32.0427 462.566C30.7329 470.174 29.675 475.427 28.7304 477.162C28.3652 477.83 27.408 477.927 26.8917 477.356C25.4937 475.828 24.7254 472.612 25.2418 469.688C25.2418 464.835 29.0201 452.702 25.2418 453.915C22.8237 455.638 20.9597 457.592 20.2041 459.982C19.3099 462.081 18.9572 465.345 18.2897 469.07C17.8867 471.326 17.7608 473.619 17.8993 475.9C18.1386 480.038 18.4409 484.09 18.7935 488.046C18.8439 488.689 17.9749 488.992 17.5845 488.458L15.3049 486.59C13.8565 485.401 12.8742 483.738 12.6601 481.906C12.4964 480.547 12.5467 479.116 12.4964 477.769C12.3956 474.639 12.3578 471.824 12.383 469.676C12.1437 464.398 13.0379 458.502 13.9069 455.117C12.0178 458.732 11.7281 460.188 11.3881 466.036V481.809C11.1488 483.484 8.34024 479.71 7.60977 476.956C7.25713 475.597 7.60977 469.676 7.60977 469.676V464.823C7.60977 464.823 8.35284 457.664 8.8692 452.69C6.51407 455.59 6.72817 471.132 6.35034 473.316C5.9977 473.656 5.58209 473.425 5.09091 472.103C4.52417 470.574 3.89445 467.808 3.83148 466.036C3.74332 463.84 3.80629 459.169 3.83148 458.756C4.12115 454.219 5.48133 449.511 6.35034 447.837C8.13873 442.632 9.14628 441.333 10.1286 439.344C16.3502 419.931 22.0554 401.852 26.5012 387.171C34.2089 360.83 42.0048 338.421 47.9116 315.586C50.1156 303.659 57.1558 277.209 63.0247 252.494C66.9164 250.844 82.697 255.916 96.9034 256.183C95.4299 266.835 88.4526 287.292 79.3973 308.306L79.4099 308.331Z" fill="#001961"/>
<path d="M128.528 179.72C129.434 180.642 130.404 181.552 131.399 182.426C136.802 187.145 143.389 191.089 149.938 193.066L166.311 197.92C173.905 199.521 180.064 197.204 183.943 191.853C181.789 177.536 180.58 164.214 182.885 153.852L208.073 146.572L215.428 109.348L217.947 59.6024L197.796 43.8294L153.716 41.4028L105.858 70.5222L86.9665 100.855L113.415 132.401L132.306 146.961C136.047 167.296 133.477 178.009 128.528 179.72Z" fill="#F2F2F2"/>
<path d="M132.495 76.6131C132.306 79.0154 134.825 79.0154 136.966 76.6131C148.679 65.6691 150.517 70.0491 158.754 74.1622C161.273 75.3755 163.792 74.235 162.532 71.7356C152.268 63.5458 143.641 60.8158 132.495 76.6131Z" fill="#001961"/>
<path d="M187.721 71.7356C187.595 73.2644 188.451 73.6526 190.24 72.9489C194.824 68.5325 199.9 70.3524 204.119 75.9943C204.723 76.7951 205.227 77.6808 205.68 78.5665C206.99 81.2237 209.043 79.9375 207.884 76.5767C204.761 67.1614 195.769 63.2182 187.734 71.7235L187.721 71.7356Z" fill="#001961"/>
<path d="M102.155 95.8925C101.777 96.1715 101.991 96.7903 102.47 96.7782C105.279 96.7054 107.306 99.5688 109.636 103.269C111.677 105.259 113.956 105.186 113.654 102.323C113.553 101.377 113.163 100.467 112.533 99.7265C109.158 95.6983 105.241 93.66 102.168 95.8803L102.155 95.8925Z" fill="#001961"/>
<path d="M137.344 86.2952C135.908 84.4146 134.183 84.4874 136.084 87.5085C137.457 89.6804 140.933 93.4052 146.991 92.6772C147.356 92.6287 147.684 92.9199 147.696 93.2718C147.86 97.0937 148.464 100.26 149.938 102.068C151.537 103.985 153.25 104.543 155.152 102.372C155.316 102.177 155.467 101.971 155.58 101.741C156.827 99.399 157.268 96.754 157.469 93.9997C157.482 93.7935 157.709 93.6721 157.91 93.7571C161.134 95.213 161.26 94.3031 160.026 92.3496C157.721 88.4307 152.986 87.9696 147.432 88.7097C145.845 88.5035 144.573 86.1254 143.653 85.0698C140.857 81.8545 140.631 84.2083 141.235 85.0213L143.653 89.923C142.23 90.8815 139.082 87.7027 137.356 86.2831L137.344 86.2952Z" fill="#001961"/>
<path d="M208.476 85.6886C209.648 83.723 211.222 83.6988 209.711 86.817C208.615 89.0737 205.731 93.0048 200.177 92.6408C199.837 92.6166 199.572 92.932 199.572 93.2839C199.698 97.1179 199.383 100.309 198.174 102.19C196.852 104.192 195.353 104.859 193.464 102.808C193.3 102.626 193.149 102.42 193.023 102.214C191.713 99.9571 191.121 97.3363 190.756 94.6064C190.731 94.4001 190.517 94.2909 190.341 94.4001C187.519 96.0502 187.33 95.1524 188.325 93.1262C190.139 89.0737 194.396 88.3336 199.509 88.7218C200.932 88.4307 201.927 85.9676 202.683 84.8635C204.988 81.4784 205.366 83.8201 204.874 84.6694L203.036 89.7046C204.396 90.5782 207.028 87.2052 208.489 85.6886H208.476Z" fill="#001961"/>
<path d="M178.086 97.8824C177.784 97.4213 177.658 96.8511 177.797 96.3294C178.137 94.9583 178.955 94.5943 180.253 95.2495C180.945 95.6014 181.512 96.1716 181.865 96.839C185.19 103.112 189.169 109.275 187.305 112.891C186.953 113.57 186.323 114.104 185.593 114.383C181.726 115.912 178.036 116.276 174.497 115.767C173.225 115.585 172.028 115.051 171.071 114.226C169.044 112.478 169.724 108.657 171.751 110.683C173.3 112.224 181.071 112.685 182.683 111.775C182.683 111.775 185.29 111.023 183.477 106.849C183.389 106.642 182.948 105.757 182.394 104.58C181.55 102.808 180.026 100.819 178.086 97.8824Z" fill="#001961"/>
<path d="M163.792 132.401C163.364 128.288 165.026 128.761 167.57 131.188C174.031 138.65 178.678 136.065 182.683 129.974C184.371 125.619 192.759 127.548 188.98 133.614C180.92 141.379 176.462 142.957 168.829 138.468C165.719 136.575 164.459 134.512 163.792 132.401Z" fill="#001961"/>
<path d="M52.9619 246.452C59.1708 255.988 76.7651 257.469 98.3014 256.158L94.5231 271.931C99.8127 285.108 102.017 297.471 103.44 307.882C104.12 312.832 103.264 320.743 101.475 325.438C99.9764 329.369 98.5029 333.822 97.0419 338.663C153.981 342.376 202.696 342.958 238.564 338.663C236.914 331.468 235.239 325.475 233.526 321.422C232.28 318.462 231.562 315.331 231.234 312.152C230.605 306.013 229.849 299.425 228.992 292.558C236.801 281.553 240.441 269.165 235.844 254.035L238.098 274.358L269.584 263.438C259.924 251.281 252.04 245.857 246.914 227.039C240.995 205.309 214.698 191.246 183.552 184.755C183.086 184.658 182.633 184.974 182.595 185.423L182.053 190.555C183.943 199.133 155.694 198.89 131.047 179.72C111.639 178.592 94.8757 181.722 83.1882 193.066C69.3722 206.862 60.0147 225.292 52.9619 246.452Z" fill="white"/>
<path d="M231.259 312.152C230.63 306.013 229.874 299.425 229.018 292.558C233.778 285.86 237.342 277.537 238.098 269.505L237.922 267.406L234.169 251.633C233.917 247.01 230.567 248.879 231.826 252.518L234.345 271.931C233.728 276.493 230.781 282.997 228.048 289.306C226.549 294.062 227.28 303.477 229.307 315.61C231.536 323.084 233.766 330.534 235.604 335.023C193.804 339.027 148.792 338.615 101.45 335.023L105.858 318.037C104.649 303.671 101.072 287.923 97.0671 271.931L109.661 233.106C110.87 227.403 110.165 226.663 107.143 231.892L99.4726 252.579C83.5912 254.193 68.9818 252.033 56.7275 246.452C62.7224 229.805 67.9742 214.772 79.3973 202.773C88.2637 188.165 112.029 179.769 130.039 182.426C130.19 182.45 130.341 182.511 130.467 182.596L138.628 188.213C144.371 191.198 151.764 194.316 161.298 197.616C171.776 199.57 179.396 199.194 185.227 195.214C185.983 194.704 186.31 193.782 186.021 192.945L184.673 189.05C184.383 188.225 185.227 187.461 186.058 187.776C200.466 193.139 215.063 198.32 226.751 206.425C234.055 212.2 239.106 217.769 241.725 225.413C242.317 227.148 243.413 229.951 244.244 231.601C246.813 236.758 249.093 241.963 252.179 248.854C252.745 250.116 253.929 252.021 254.798 253.113C257.493 256.462 260.944 260.417 264.546 263.45C256.65 266.993 245.982 269.869 236.839 271.943V275.583L269.03 263.669C269.319 263.56 269.42 263.208 269.231 262.977C259.748 251.16 252.015 245.627 246.939 227.063C241.02 205.333 214.723 191.271 183.577 184.779C183.111 184.682 182.658 184.998 182.62 185.447L182.079 190.579C183.968 199.157 155.719 198.914 131.072 179.744C111.664 178.616 94.9009 181.746 83.2133 193.091C69.3974 206.886 60.0398 225.316 52.987 246.476C59.196 256.013 76.7902 257.493 98.3265 256.183L94.5482 271.956C100.316 286.345 100.757 303.174 102.483 313.511C103.188 317.722 102.797 322.029 101.286 326.033C99.863 329.818 98.4524 334.077 97.0671 338.688C154.006 342.4 202.721 342.983 238.589 338.688C236.939 331.493 235.264 325.499 233.552 321.446C232.305 318.486 231.587 315.356 231.259 312.177V312.152Z" fill="#001961" stroke="#001961" stroke-miterlimit="10"/>
<path d="M132.81 181.03C135.429 173.702 140.442 171.627 135.518 147.834L131.047 150.601C135.719 160.331 134.812 170.026 129.787 179.72L132.81 181.03Z" fill="#001961"/>
<path d="M181.55 189.426C178.288 180.739 179.673 178.507 180.29 175.255L180.933 172.476C181.109 171.688 182.129 171.651 182.356 172.416C182.872 174.127 183.048 175.922 182.935 177.718C182.759 180.484 183.174 183.166 185.328 185.58L181.55 189.414V189.426Z" fill="#001961"/>
<path d="M126.664 163.753C87.4577 170.559 63.0247 168.084 48.7932 158.475C40.6447 152.979 36.35 143.527 37.2064 133.978C40.4306 97.8338 52.3196 84.7058 68.327 76.9406C70.4932 75.885 72.0675 73.9437 72.4831 71.6506C81.6139 21.9413 110.984 1.15739 152.155 0.0290114C158.804 -0.152985 165.442 0.526468 171.928 1.92177C226.272 13.5817 235.567 41.9003 226.914 75.2541C226.058 78.5543 226.108 82.0244 227.129 85.276C239.509 124.842 241.889 156.485 223.363 165.597C206.726 176.444 186.462 165.148 186.462 156.655C173.225 157.359 163.061 155.09 155.832 149.994C155.605 149.836 155.769 149.496 156.046 149.533C168.704 151.389 180.416 151.086 191.512 149.375C197.809 146.948 202.935 145.323 206.537 139.887C210.139 134.451 212.645 128.482 212.431 122.209C212.116 113.073 212.633 96.6326 213.602 87.1203C213.854 84.5844 213.905 82.0365 213.842 79.4885C213.703 74.3563 214.711 66.1422 215.202 62.575C215.416 60.9613 215.114 59.3112 214.27 57.9038C213.338 56.3508 212.003 55.1375 210.391 54.1911C209.761 53.8271 208.93 54.0576 208.615 54.7007C206.915 58.0251 204.358 59.9664 200.34 59.6024L197.104 52.3347C196.864 51.7887 196.109 51.6795 195.718 52.1406C192.028 56.4721 187.91 59.5539 182.708 59.6146L181.625 49.2165C181.55 48.5007 180.668 48.1852 180.114 48.6584C174.333 53.5965 167.381 57.4063 158.767 59.6146V55.3923C158.767 55.1496 158.477 55.0404 158.301 55.1981C145.253 67.404 131.399 78.8212 114.687 87.5206L115.946 92.3739C115.82 94.6306 114.976 94.9946 113.427 93.5872C111.639 88.831 110.002 85.7128 104.611 86.3073C101.148 87.824 98.314 90.2142 97.0546 94.8005C97.3946 98.8408 98.3896 101.777 99.7497 104.094C100.505 105.381 101.072 106.764 101.299 108.232C101.526 109.7 101.727 111.217 101.866 112.745C102.029 114.492 103.352 115.936 105.128 116.325C107.42 116.822 109.221 116.81 110.896 116.652C108.805 122.585 131.424 141.986 134.825 145.772C136.651 147.798 134.472 153.197 133.162 158.026C132.356 160.999 129.812 163.243 126.676 163.789L126.664 163.753Z" fill="#001961"/>
</svg>
