<?xml version="1.0" encoding="UTF-8"?>
<svg id="Layer_1" xmlns="http://www.w3.org/2000/svg" version="1.1" viewBox="0 0 281.5 807">
  <!-- Generator: Adobe Illustrator 29.3.1, SVG Export Plug-In . SVG Version: 2.1.0 Build 151)  -->
  <defs>
    <style>
      .st0 {
        stroke: #001961;
        stroke-miterlimit: 10;
      }

      .st0, .st1 {
        fill: #001961;
      }

      .st2 {
        fill: #fff;
      }

      .st3 {
        fill: #f2f2f2;
      }
    </style>
  </defs>
  <path class="st2" d="M16.5,673.6c-3,.4-5.9,1.5-8.7,3.3-6.8,4.4-9.3,12.7-6.7,20.2,2.8,7.9,5,16.3,6.6,25.1,1.1,5,2,13.1,2.6,18.7.4,4.6,2.4,8.9,5.7,12.2,6.2,6.5,17,16.7,26.5,20.3,1.8.7,3.8.5,5.4-.5,3.4-2.1,6.6-4.5,9.4-7.2,1.3-1.3,1.9-3.3,1.5-5.1-3.2-15.7-4.3-36.8-4.4-49.4s-6.2-4.2-10.2-1.9c0,0-.1,0-.2,0-2.2,1.2-4.9,1-6.9-.5-9.3-7.2-13.9-18.3-13.6-29.5,0-3.6,4.3-9.4-7-5.8h0Z"/>
  <path class="st2" d="M182.9,745.1c4.6,7.2,10.1,12.2,17,13.9,2.3.6,4.7-.2,6.2-2,4.9-5.9,12-10.3,18.7-11.6,1.2-.2,2.4.1,3.2.9,15.6,14.9,27.4,25.1,41.5,33.5,4.5,2.7,6.8,7.8,6.3,12.8-.2,1.5-.6,5.4-1.2,7-6.8,4-14.7,6.8-25.2,7.3-10.8-.6-21.8-1.6-34-6.1-16.8-10-33.7-20-40.3-30.3-1.9-11-.6-19.7,4.2-25.7.9-1.2,2.8-1.1,3.6.2h0Z"/>
  <path class="st2" d="M102.1,251.3c-5.3,16.9-13,38.6-21.7,58.2-1.3,3-2.1,6.3-2.2,9.6-.4,9.5-3,20.9-6.3,32.9-17.4,24.6-37.8,74-37.8,80.1s5,10.9,5,14.6-1.3,10-5,14.9c-.4,5-2,9.3-5,16.6-5.5-.5-8.1-4.7-3.8-21.8-2.8,2.3-4.6,5.5-5,9.7v22.8c0,1.3-2.5.9-3.8.3-5.3-2.6-6.6-8.5-11.3-14.6-4.2-16.4-3.8-20.6,3.8-36.4,7.1-26.6,33.7-118.9,34-120.1,0,0,14.1-49,18.9-71.6,11.1,3.9,26.2,6.2,40.3,4.9Z"/>
  <path class="st2" d="M63,252.5c-5.9,24.7-12.9,51.2-15.1,63.1-5.9,22.8-13.7,45.2-21.4,71.6-4.4,14.7-10.2,32.8-16.4,52.2-1,2-2,3.3-3.8,8.5-2.2,1.2-1.7,5.8-2.5,9.7-.4,1.7,0,17.1,2.5,15.8,1.2-3.5,1.3-19.5,2.5-20.6-.7,5-1.1,9.5-1.3,15.8.2,1.3-1.3,6.1,0,8.5,2.1,7.5,4.5,7.6,3.8,2.4v-13.3c.3-5.8.6-7.3,2.5-10.9-.9,3.4-1.8,9.3-1.5,14.6,0,2.1-.5,5.4-1,8.5-.4,2.2-.7,5,2.5,8.5l3.7,1.8c.4.5,1.3.2,1.2-.4-.4-4.5-.7-9.1-1-13.9,0-1.3,0-2.6.3-3.8.8-4.3,1.1-8,2.2-10.4.8-2.4,2.6-4.3,5-6.1,2.5,0,0,10.9,0,15.8-.6,3.5.6,5.6,2.5,7.3,1.2-.3,3.2-4.2,5-14.6.8-2.5,1.1-4.8,2.6-7,1.6-2.1,2.1-7.2,1.1-8.8,0,0-3.6-9.7-3.8-14.6,0-3.6,2.4-14.2,5-18.2,10.3-26.2,17.5-37.3,30.2-61.9,4.4-7,5.7-16.5,7.6-26.7l1.3-7.3c.4-3.5,1.1-6.5,2.5-9.7,9.1-21,16-41.5,17.5-52.1-14.2-.3-30-5.3-33.9-3.7h0Z"/>
  <path class="st2" d="M46.9,648.7c-10,12.5-17.9,20.6-26.7,27.2l1.3,23.1c11.5,14.4,22.7,18.2,31.5,7.3,4-19.7,9.7-26.5,20.9-34.7l-27-22.9h0Z"/>
  <path class="st1" d="M46.9,648.7c-11.6,13.9-21.7,24.8-25.4,24.8v25.5c11.5,14.4,22.7,18.2,31.5,7.3,4-19.7,9.7-26.5,20.9-34.7l-27-22.9h0ZM50.4,706.3c-6.1,3.9-16.8,6-26.4-7.3l-1.3-20.6c8.9-8.5,18-19.5,25.3-26.7l20.2,20.7c-11.2,9.4-15.2,16.4-17.7,33.9Z"/>
  <path class="st2" d="M8.9,680.8c-1.3,4.9-.3,5.8,1.3,9.3,1.9,4.2,4.6,9.4,7.6,15,2.3,7.7,4.4,15.8,6.3,24.3-.3,4.5,0,8.9,1.3,13.3,10.3,16.5,13.9,18.2,21.4,20.6,7.6,1.2,8.7-.4,10.1-4.9l-3.8-15.8-1.2-33.2c0-.9-1.1-1.4-1.8-.9-1.7,1.1-3.6,2.5-5.5,3.5-2.2,1.2-5,1-7-.5-3.6-2.7-6.9-6.3-10-10-1.4-1.7-2.5-3.7-3.1-5.8-2.2-7.2-3.4-13.6-2.9-20.3,0-.4-.3-.8-.7-.8-5.8-.5-11,3.2-11.8,6.2Z"/>
  <path class="st1" d="M58.7,760.5c-3.2-15.7-4.3-36.8-4.4-49.4-.2-12.6-6.2-4.2-10.2-1.9,0,0-.1,0-.2,0-2.2,1.2-4.9,1-6.9-.5-9.3-7.2-13.9-18.3-13.6-29.5,0-3.6,4.3-9.4-7-5.8-3,.4-5.9,1.5-8.7,3.3-6.8,4.4-9.3,12.7-6.7,20.2,2.8,7.9,5,16.3,6.6,25.1,1.1,5,2,13.1,2.6,18.7.4,4.6,2.4,8.9,5.7,12.2,6.2,6.5,17,16.7,26.5,20.3,1.8.7,3.8.5,5.4-.5,3.4-2.1,6.6-4.5,9.4-7.2,1.3-1.3,1.9-3.3,1.5-5.1h0ZM46.7,763.3c-7.6-2.4-11.1-4.1-21.4-20.6-1.2-4.4-1.6-8.9-1.3-13.3-1.9-8.4-4-16.6-6.3-24.3-2.9-5.6-5.6-10.8-7.6-15-1.5-3.5-2.5-4.4-1.3-9.3.8-2.9,6.1-6.7,11.8-6.2.4,0,.7.4.7.8-.6,6.7.7,13.1,2.9,20.3.6,2.1,1.7,4.1,3.1,5.8,3.1,3.7,6.4,7.4,10,10,2,1.5,4.8,1.7,7,.5,1.9-1,3.9-2.4,5.5-3.5.8-.5,1.8,0,1.8.9l1.2,33.2,3.8,15.8c-1.3,4.5-2.5,6.1-10.1,4.9Z"/>
  <path class="st2" d="M212.9,712.4h-31.5c2,13.5,2.3,29.2-2.1,32.6,4.6,11.9,12.2,18.1,21,22,13.9-1.7,22.9-8.8,29.1-19-6.4-8.9-16.5-19.8-16.5-35.6Z"/>
  <path class="st1" d="M212.9,712.4h-31.5c2,13.5,2.3,29.2-2.1,32.6,4.6,11.9,12.2,18.1,21,22,13.9-1.7,22.9-8.8,29.1-19-6.4-8.9-16.5-19.8-16.5-35.6ZM182.7,746.3c2.7-8.1,4.1-19.2,2.5-30.3h25.2c.2,4.4,1,8.4,2.5,12.1,2.2,5.5,6.2,11.7,11.3,18.2-12.9,22.1-29.6,23.2-41.6,0Z"/>
  <path class="st2" d="M179.4,747.7c-.8,1.7-1.3,4-1.8,5.9v6.1c0,4.2,2.5,6.1,5,8.5,5.5,4.8,11,8.4,18.9,13.3,7,4.9,15.9,8.5,26.4,10.9,8.4.9,16.4,1.6,21.4,1.2,8.4-.4,13.5-1.3,17.6-2.4,3.5-2,4.8-4,2.5-6.1l-21.7-14.6c-8.7-6.7-15.9-14.9-21.3-21.7-.7-.9-2.5-.5-3.6-.1-2.9,1.2-5.2,2.7-7.4,4.8-2.5,2.1-5.5,4.6-9,7.4-2.9,1.4-5.8,1.8-8.8,1.2-6.1-2.2-9.9-6.6-13.9-10.9l-2.5-4.9c-.2-.6-1.8.8-2,1.4Z"/>
  <path class="st1" d="M269.5,779.9c-14.1-8.4-25.8-18.6-41.5-33.5-.8-.8-2.1-1.2-3.2-1-6.8,1.3-13.8,5.7-18.7,11.6-1.5,1.8-3.9,2.6-6.2,2-6.9-1.8-12.4-6.8-17-13.9-.8-1.2-2.6-1.3-3.6-.2-4.7,5.8-6,14.3-4.3,24.9,0,.5.3,1,.6,1.4,6.9,10.1,23.4,19.9,39.9,29.7,12.2,4.5,23.2,5.5,34,6.1,10.4-.4,18.4-3.3,25.2-7.3.6-1.6,1-5.6,1.2-7,.6-5-1.8-10.1-6.3-12.8ZM267.1,791.2c-4.1,1.1-9.2,2-17.6,2.4-5,.4-13-.4-21.4-1.2-10.5-2.5-19.4-6.1-26.4-10.9-7.9-4.9-13.4-8.5-18.9-13.3-2.5-2.4-5-4.3-5-8.5v-4.8c0-.9.1-1.7.3-2.6.4-1.6.9-3.3,1.5-4.6.2-.6,1.8-.7,2-.2l2.5,4.9c4,4.3,7.8,7.5,13.9,9.7,3,.6,5.9.2,8.8-1.2,3.5-2.8,6.5-5.3,9-7.4,2.3-2.1,4.6-3.7,7.6-4.9,1.4-.5,3.2,0,4.1,1,5.3,6.6,12.3,14.5,20.6,20.9l21.7,14.6c2.3,2,1,4.1-2.5,6.1h0Z"/>
  <path class="st1" d="M97,338.7c-4,15.1-7,31.2-9.1,48.6-.7,5.9-.5,11.8.6,17.7,4.2,22.8,11.8,45.6,24.9,68.4l51.6,106.8c-7.3,36.1-8.5,79.2-2.9,123.4.2,1.9,1.2,3.7,2.6,4.9,13.6,11.6,33.1,11.5,50.2,6.1,1.7-.5,2.9-2.1,2.9-3.8.6-45.6,0-88.8,7.1-115.9,6.6-30.8,7.3-53,3.9-69.3-5.9-31.1-21.4-80.4-38-132-.1-.4.2-.8.6-.8h1.4c.3,0,.6.2.7.5l24.3,77.8c18.1-34,24.2-79.5,20.6-132.3H97Z"/>
  <path class="st1" d="M44.6,654.9l24.7,22.3c2.8,2.1,10.3,1.4,12.6-1.2,9.5-7.9,45.5-53.1,78.5-92.2,2-2.2,2.4-5.4,1-8.1l-33-68.4c-1.9,15.4-11.9,32-20.2,47.3l-40.3,41.3c-8.9,11.2-20.3,32-26.2,50.6-1,3.1,0,6.4,2.7,8.5h0Z"/>
  <path class="st2" d="M281.4,341.1c-2-7.9-2.3-16.5-1.8-24.6.4-5.4,1.1-11.4,3.4-16.5-1.5-1.5-2.9-3.1-4.1-4.8-8.3-11-15.9-22.5-23.1-34.2l-21.4,8.5c.5,4.1-5.1,10.8-10.1,20.6,20,31.3,40.6,44.4,58,53.7-.3-1-.6-1.9-.8-2.8Z"/>
  <path class="st1" d="M281.4,341.1c0-.3-.2-.7-.2-1-22.3-13.8-41.8-29.2-52.1-47.5l7.8-17,20.2-8.5c12.8,18.4,18.7,27.6,25.3,34.6.2-.6.4-1.1.7-1.7-1.5-1.5-2.9-3-4.1-4.8-8.3-11-15.9-22.5-23.1-34.2l-21.4,8.5c.5,4.1-5.1,10.8-10.1,20.6,20,31.3,40.6,44.4,58,53.7-.3-1-.6-1.9-.8-2.8Z"/>
  <path class="st1" d="M61.8,246.5c-4.8,22.6-18.9,71.6-18.9,71.6-.3,1.2-26.9,93.6-34,120.1-5.2,8.8-9.2,18-5.5,33.4.7,2.7,2.5,6.9,4.1,9.2,2.5,3.6,5.3,7,8.9,9.6,1.4,1,3.8.2,3.8-1.5-.7-8.7-1-16.8,0-22.8.5-4.2,2.3-7.4,5-9.7-3.5,13.9-2.4,20.1,1,22.2,1.3.8,3,.2,3.6-1.2,2-5.2,3.3-9.4,3.9-13.3.3-1.6.8-3.1,1.6-4.5,2.7-4.6,3.7-9.8,3.7-12.9s-5-8.5-5-14.6,20.4-55.5,37.8-80.1c3.2-12,5.9-23.5,6.3-32.9.2-3.3.9-6.5,2.2-9.5,8.7-19.6,16.4-41.3,21.7-58.2-14.1,1.4-29.2-1-40.3-4.9h0ZM79.4,308.3c-1.4,3.2-2.2,6.2-2.5,9.7l-1.3,7.3c-1.9,10.2-3.1,19.6-7.6,26.7-12.7,24.5-19.9,35.7-30.2,61.9-2.6,4-5,14.6-5,18.2.2,4.9,3.8,14.6,3.8,14.6.9,1.6.4,6.7-1.1,8.8-1.6,2.1-2.6,4.6-3.4,7.1-1.3,7.6-2.4,12.9-3.3,14.6-.4.7-1.3.8-1.8.2-1.4-1.5-2.2-4.7-1.6-7.7,0-4.9,3.8-17,0-15.8-2.4,1.7-4.3,3.7-5,6.1-.9,2.1-1.2,5.4-1.9,9.1-.4,2.3-.5,4.5-.4,6.8.2,4.1.5,8.2.9,12.1,0,.6-.8.9-1.2.4l-2.3-1.9c-1.4-1.2-2.4-2.9-2.6-4.7-.2-1.4-.1-2.8-.2-4.1-.1-3.1-.1-5.9-.1-8.1-.2-5.3.7-11.2,1.5-14.6-1.9,3.6-2.2,5.1-2.5,10.9v15.8c-.2,1.7-3-2.1-3.8-4.9-.4-1.4,0-7.3,0-7.3v-4.9s.7-7.2,1.3-12.1c-2.4,2.9-2.1,18.4-2.5,20.6-.4.3-.8.1-1.3-1.2-.6-1.5-1.2-4.3-1.3-6.1,0-2.2,0-6.9,0-7.3.3-4.5,1.6-9.2,2.5-10.9,1.8-5.2,2.8-6.5,3.8-8.5,6.2-19.4,11.9-37.5,16.4-52.2,7.7-26.3,15.5-48.8,21.4-71.6,2.2-11.9,9.2-38.4,15.1-63.1,3.9-1.7,19.7,3.4,33.9,3.7-1.5,10.7-8.5,31.1-17.5,52.1h0Z"/>
  <path class="st3" d="M128.5,179.7c.9.9,1.9,1.8,2.9,2.7,5.4,4.7,12,8.7,18.5,10.6l16.4,4.9c7.6,1.6,13.8-.7,17.6-6.1-2.2-14.3-3.4-27.6-1.1-38l25.2-7.3,7.4-37.2,2.5-49.7-20.2-15.8-44.1-2.4-47.9,29.1-18.9,30.3,26.4,31.5,18.9,14.6c3.7,20.3,1.2,31-3.8,32.8Z"/>
  <path class="st1" d="M132.5,76.6c-.2,2.4,2.3,2.4,4.5,0,11.7-10.9,13.6-6.6,21.8-2.5,2.5,1.2,5,0,3.8-2.4-10.3-8.2-18.9-10.9-30,4.9Z"/>
  <path class="st1" d="M187.7,71.7c-.1,1.5.7,1.9,2.5,1.2,4.6-4.4,9.7-2.6,13.9,3,.6.8,1.1,1.7,1.6,2.6,1.3,2.7,3.4,1.4,2.2-2-3.1-9.4-12.1-13.4-20.2-4.9h0Z"/>
  <path class="st1" d="M102.2,95.9c-.4.3-.2.9.3.9,2.8,0,4.8,2.8,7.2,6.5,2,2,4.3,1.9,4-.9-.1-.9-.5-1.9-1.1-2.6-3.4-4-7.3-6.1-10.4-3.8h0Z"/>
  <path class="st1" d="M137.3,86.3c-1.4-1.9-3.2-1.8-1.3,1.2,1.4,2.2,4.8,5.9,10.9,5.2.4,0,.7.2.7.6.2,3.8.8,7,2.2,8.8,1.6,1.9,3.3,2.5,5.2.3.2-.2.3-.4.4-.6,1.2-2.3,1.7-5,1.9-7.7,0-.2.2-.3.4-.2,3.2,1.5,3.3.5,2.1-1.4-2.3-3.9-7-4.4-12.6-3.6-1.6-.2-2.9-2.6-3.8-3.6-2.8-3.2-3-.9-2.4,0l2.4,4.9c-1.4,1-4.6-2.2-6.3-3.6h0Z"/>
  <path class="st1" d="M208.5,85.7c1.2-2,2.7-2,1.2,1.1-1.1,2.3-4,6.2-9.5,5.8-.3,0-.6.3-.6.6.1,3.8-.2,7-1.4,8.9-1.3,2-2.8,2.7-4.7.6-.2-.2-.3-.4-.4-.6-1.3-2.3-1.9-4.9-2.3-7.6,0-.2-.2-.3-.4-.2-2.8,1.7-3,.8-2-1.3,1.8-4.1,6.1-4.8,11.2-4.4,1.4-.3,2.4-2.8,3.2-3.9,2.3-3.4,2.7-1,2.2-.2l-1.8,5c1.4.9,4-2.5,5.5-4h0Z"/>
  <path class="st1" d="M178.1,97.9c-.3-.5-.4-1-.3-1.6.3-1.4,1.2-1.7,2.5-1.1.7.4,1.3.9,1.6,1.6,3.3,6.3,7.3,12.4,5.4,16.1-.4.7-1,1.2-1.7,1.5-3.9,1.5-7.6,1.9-11.1,1.4-1.3-.2-2.5-.7-3.4-1.5-2-1.7-1.3-5.6.7-3.5,1.5,1.5,9.3,2,10.9,1.1,0,0,2.6-.8.8-4.9,0-.2-.5-1.1-1.1-2.3-.8-1.8-2.4-3.8-4.3-6.7Z"/>
  <path class="st1" d="M163.8,132.4c-.4-4.1,1.2-3.6,3.8-1.2,6.5,7.5,11.1,4.9,15.1-1.2,1.7-4.4,10.1-2.4,6.3,3.6-8.1,7.8-12.5,9.3-20.2,4.9-3.1-1.9-4.4-4-5-6.1Z"/>
  <path class="st2" d="M53,246.5c6.2,9.5,23.8,11,45.3,9.7l-3.8,15.8c5.3,13.2,7.5,25.5,8.9,36,.7,5-.2,12.9-2,17.6-1.5,3.9-3,8.4-4.4,13.2,56.9,3.7,105.7,4.3,141.5,0-1.6-7.2-3.3-13.2-5-17.2-1.2-3-2-6.1-2.3-9.3-.6-6.1-1.4-12.7-2.2-19.6,7.8-11,11.4-23.4,6.9-38.5l2.3,20.3,31.5-10.9c-9.7-12.2-17.5-17.6-22.7-36.4-5.9-21.7-32.2-35.8-63.4-42.3-.5,0-.9.2-1,.7l-.5,5.1c1.9,8.6-26.4,8.3-51-10.8-19.4-1.1-36.2,2-47.9,13.3-13.8,13.8-23.2,32.2-30.2,53.4Z"/>
  <path class="st0" d="M231.3,312.2c-.6-6.1-1.4-12.7-2.2-19.6,4.8-6.7,8.3-15,9.1-23.1l-.2-2.1-3.8-15.8c-.3-4.6-3.6-2.8-2.3.9l2.5,19.4c-.6,4.6-3.6,11.1-6.3,17.4-1.5,4.8-.8,14.2,1.3,26.3,2.2,7.5,4.5,14.9,6.3,19.4-41.8,4-86.8,3.6-134.2,0l4.4-17c-1.2-14.4-4.8-30.1-8.8-46.1l12.6-38.8c1.2-5.7.5-6.4-2.5-1.2l-7.7,20.7c-15.9,1.6-30.5-.5-42.7-6.1,6-16.6,11.2-31.7,22.7-43.7,8.9-14.6,32.6-23,50.6-20.3.2,0,.3,0,.4.2l8.2,5.6c5.7,3,13.1,6.1,22.7,9.4,10.5,2,18.1,1.6,23.9-2.4.8-.5,1.1-1.4.8-2.3l-1.3-3.9c-.3-.8.6-1.6,1.4-1.3,14.4,5.4,29,10.5,40.7,18.6,7.3,5.8,12.4,11.3,15,19,.6,1.7,1.7,4.5,2.5,6.2,2.6,5.2,4.8,10.4,7.9,17.3.6,1.3,1.8,3.2,2.6,4.3,2.7,3.3,6.1,7.3,9.7,10.3-7.9,3.5-18.6,6.4-27.7,8.5v3.6l32.2-11.9c.3-.1.4-.5.2-.7-9.5-11.8-17.2-17.3-22.3-35.9-5.9-21.7-32.2-35.8-63.4-42.3-.5,0-.9.2-1,.7l-.5,5.1c1.9,8.6-26.4,8.3-51-10.8-19.4-1.1-36.2,2-47.9,13.3-13.8,13.8-23.2,32.2-30.2,53.4,6.2,9.5,23.8,11,45.3,9.7l-3.8,15.8c5.8,14.4,6.2,31.2,7.9,41.6.7,4.2.3,8.5-1.2,12.5-1.4,3.8-2.8,8-4.2,12.7,56.9,3.7,105.7,4.3,141.5,0-1.7-7.2-3.3-13.2-5-17.2-1.2-3-2-6.1-2.3-9.3h0Z"/>
  <path class="st1" d="M132.8,181c2.6-7.3,7.6-9.4,2.7-33.2l-4.5,2.8c4.7,9.7,3.8,19.4-1.3,29.1l3,1.3Z"/>
  <path class="st1" d="M181.6,189.4c-3.3-8.7-1.9-10.9-1.3-14.2l.6-2.8c.2-.8,1.2-.8,1.4,0,.5,1.7.7,3.5.6,5.3-.2,2.8.2,5.4,2.4,7.9l-3.8,3.8h0Z"/>
  <path class="st1" d="M126.7,163.8c-39.2,6.8-63.6,4.3-77.9-5.3-8.1-5.5-12.4-14.9-11.6-24.5,3.2-36.1,15.1-49.3,31.1-57,2.2-1.1,3.7-3,4.2-5.3C81.6,21.9,111,1.2,152.2,0c6.6-.2,13.3.5,19.8,1.9,54.3,11.7,63.6,40,55,73.3-.9,3.3-.8,6.8.2,10,12.4,39.6,14.8,71.2-3.8,80.3-16.6,10.8-36.9-.4-36.9-8.9-13.2.7-23.4-1.6-30.6-6.7-.2-.2,0-.5.2-.5,12.7,1.9,24.4,1.6,35.5-.2,6.3-2.4,11.4-4.1,15-9.5,3.6-5.4,6.1-11.4,5.9-17.7-.3-9.1.2-25.6,1.2-35.1.3-2.5.3-5.1.2-7.6-.1-5.1.9-13.3,1.4-16.9.2-1.6,0-3.3-.9-4.7-.9-1.6-2.3-2.8-3.9-3.7-.6-.4-1.5-.1-1.8.5-1.7,3.3-4.3,5.3-8.3,4.9l-3.2-7.3c-.2-.5-1-.7-1.4-.2-3.7,4.3-7.8,7.4-13,7.5l-1.1-10.4c0-.7-1-1-1.5-.6-5.8,4.9-12.7,8.7-21.3,11v-4.2c0-.2-.3-.4-.5-.2-13,12.2-26.9,23.6-43.6,32.3l1.3,4.9c-.1,2.3-1,2.6-2.5,1.2-1.8-4.8-3.4-7.9-8.8-7.3-3.5,1.5-6.3,3.9-7.6,8.5.3,4,1.3,7,2.7,9.3.8,1.3,1.3,2.7,1.5,4.1.2,1.5.4,3,.6,4.5.2,1.7,1.5,3.2,3.3,3.6,2.3.5,4.1.5,5.8.3-2.1,5.9,20.5,25.3,23.9,29.1,1.8,2-.4,7.4-1.7,12.3-.8,3-3.4,5.2-6.5,5.8h0Z"/>
</svg>