<svg width="51" height="40" viewBox="0 0 51 40" fill="none" xmlns="http://www.w3.org/2000/svg">
<path d="M17 0.699991C18.5 0.699991 19.55 1.74999 19.55 2.95C19.55 5.2 13.25 9.25 13.25 14.65C13.25 20.05 21.2 20.95 21.2 29.2C21.2 35.65 16.25 39.55 11.3 39.55C5.3 39.55 0.65 35.8 0.65 26.8C0.65 11.35 11.3 0.699991 17 0.699991ZM46.1 0.699991C47.6 0.699991 48.65 1.74999 48.65 2.95C48.65 5.2 42.35 9.25 42.35 14.65C42.35 20.05 50.3 20.95 50.3 29.2C50.3 35.65 45.2 39.55 40.4 39.55C34.4 39.55 29.6 35.8 29.6 26.8C29.6 11.35 40.4 0.699991 46.1 0.699991Z" fill="#4EB3AC"/>
</svg>
